<svg version="1.0" xmlns="http://www.w3.org/2000/svg"
 width="300.000000pt" height="268.000000pt" viewBox="0 0 300.000000 268.000000"
 preserveAspectRatio="xMidYMid meet">
<g transform="translate(0.000000,268.000000) scale(0.100000,-0.100000)"
fill="#000000" stroke="none">
<path d="M1350 2413 c-177 -24 -462 -141 -594 -244 -134 -104 -218 -192 -306
-322 -94 -139 -142 -246 -187 -417 -26 -97 -28 -119 -28 -305 0 -187 2 -208
28 -313 35 -138 71 -225 156 -374 28 -49 56 -76 67 -65 2 2 -12 28 -31 57
-154 239 -223 529 -195 816 15 159 54 294 125 437 242 489 752 767 1290 703
493 -58 898 -385 1060 -856 121 -351 72 -783 -124 -1080 -55 -82 -54 -80 -37
-80 35 0 144 202 194 360 44 138 55 225 54 405 -1 206 -30 348 -104 510 -168
370 -483 636 -869 736 -112 29 -140 32 -294 34 -93 2 -186 1 -205 -2z"/>
</g>
</svg>
